<?xml version="1.0" encoding="UTF-8"?>
<svg version="1.1" xmlns="http://www.w3.org/2000/svg" width="512" height="512">
<path d="M0 0 C0.825 0.13664063 1.65 0.27328125 2.5 0.4140625 C7.85376591 2.47191627 10.77402811 7.26369799 13.75 11.9375 C21.70568895 24.10239023 30.57866955 35.22791509 41 45.375 C41.69222656 46.15230469 41.69222656 46.15230469 42.3984375 46.9453125 C47.73304988 52.74832987 54.2001694 56.50842966 61 60.375 C61.62519531 60.80167969 62.25039062 61.22835937 62.89453125 61.66796875 C68.24679511 63.46529669 73.82238806 61.34283007 78.68041992 59.00317383 C79.32213135 58.67212646 79.96384277 58.3410791 80.625 58 C81.31376221 57.64768311 82.00252441 57.29536621 82.7121582 56.93237305 C90.19510197 52.95263187 96.67752775 47.98965028 103 42.375 C103.5475293 41.8893457 104.09505859 41.40369141 104.65917969 40.90332031 C113.66217185 32.75521167 120.60728945 23.45295103 127.50512695 13.50561523 C135.95337995 1.46447463 135.95337995 1.46447463 143.25 -0.5 C148.65276625 -0.68009221 153.40316587 0.22421032 157.66015625 3.75 C161.36386701 7.8586498 164.10927282 12.66830371 167.0234375 17.34765625 C178.2513658 34.54458201 192.13499492 49.026198 210 59.375 C210.62519531 59.73722656 211.25039063 60.09945312 211.89453125 60.47265625 C217.85320328 63.47292437 223.87979467 63.28199136 230.14453125 61.4609375 C241.77538441 57.18387406 251.63115943 51.45414258 261 43.375 C261.8353125 42.66214844 262.670625 41.94929688 263.53125 41.21484375 C273.68976356 32.32614438 281.50233755 22.48684756 289 11.375 C293.1020574 5.42190083 296.00165061 1.45147868 303.25 -0.5 C308.65276625 -0.68009221 313.40316587 0.22421032 317.66015625 3.75 C320.61117465 7.02366308 322.86288535 10.70602637 325.1875 14.4375 C337.48622655 34.1100801 355.88105992 55.79049175 379 62.375 C382.63235795 62.97002223 386.26390129 63.42414856 389.91796875 63.86328125 C395.22186221 64.74390234 397.62918812 66.54725083 400.875 70.875 C402.92853522 77.26377623 403.22647719 83.73335681 400.375 89.875 C396.6105617 93.83756663 393.63870315 96.16562847 388.1171875 96.87109375 C386.70300573 96.87773856 385.28849218 96.85715506 383.875 96.8125 C383.1229126 96.79638672 382.3708252 96.78027344 381.59594727 96.76367188 C355.50124348 95.8501205 335.83782613 78.21080953 318.1875 60.6875 C317.64810791 60.15286133 317.10871582 59.61822266 316.55297852 59.06738281 C307 49.47435921 307 49.47435921 307 46.375 C303.85398388 48.66301172 301.26810369 51.1217775 298.75 54.0625 C281.39157912 74.20867584 255.94444052 93.91643205 228.69140625 96.60253906 C205.12054502 98.1210832 187.52483392 87.88156266 170.23095703 72.8359375 C163.71010704 67.07020955 157.5242177 61.11845921 152 54.375 C151.24396484 53.50875 151.24396484 53.50875 150.47265625 52.625 C147 48.6232687 147 48.6232687 147 46.375 C143.90238445 48.62781131 141.34721222 51.03637386 138.875 53.9375 C122.9694046 72.3580827 99.9674371 92.67063248 75 96.375 C52.03234528 97.82084823 38.10181497 88.64739033 21.109375 73.859375 C15.65250542 68.99888461 10.62894137 64.02578273 6 58.375 C5.19949219 57.40433594 4.39898437 56.43367188 3.57421875 55.43359375 C1.37404629 52.75437908 -0.81682843 50.06807331 -3 47.375 C-6.65075814 48.87632301 -8.63276273 50.96395335 -11.1875 53.9375 C-23.65597019 68.04283581 -37.35250288 78.62157414 -54 87.375 C-54.89847656 87.85710937 -55.79695313 88.33921875 -56.72265625 88.8359375 C-67.64564239 94.27271793 -79.54110567 96.69867532 -91.6875 96.875 C-92.42943604 96.89344971 -93.17137207 96.91189941 -93.93579102 96.9309082 C-99.09789394 96.87138401 -102.01752824 95.59411536 -106 92.375 C-109.60938411 88.5756483 -110.30931409 85.52881391 -110.5 80.4375 C-110.30029234 74.88700437 -109.43421764 71.73738457 -106 67.375 C-101.54271132 63.90728015 -97.05040105 63.66742812 -91.625 63.0625 C-77.17443573 61.14459717 -65.77625808 56.13640276 -54 47.375 C-52.74123047 46.45074219 -52.74123047 46.45074219 -51.45703125 45.5078125 C-37.50258618 34.81458114 -27.0193738 21.86362217 -17.625 7.125 C-14.94971867 3.04692073 -12.4513892 1.0052403 -7.66015625 -0.2265625 C-4.85804571 -0.64626188 -2.77840683 -0.51226876 0 0 Z " fill="#FFFFFF" transform="translate(110,207.625)"/>
</svg>
